Coordinates
version=1
nRows=34
nColumns=38
inDegrees=no

Units are S.I. units (second, meters, Newtons, ...)
If the header above contains a line with 'inDegrees', this indicates whether rotational values are in degrees (yes) or radians (no).

endheader
time	pelvis_tilt	pelvis_list	pelvis_rotation	pelvis_tx	pelvis_ty	pelvis_tz	hip_flexion_r	hip_adduction_r	hip_rotation_r	knee_angle_r	ankle_angle_r	subtalar_angle_r	mtp_angle_r	hip_flexion_l	hip_adduction_l	hip_rotation_l	knee_angle_l	ankle_angle_l	subtalar_angle_l	mtp_angle_l	lumbar_extension	lumbar_bending	lumbar_rotation	arm_flex_r	arm_add_r	arm_rot_r	elbow_flex_r	pro_sup_r	wrist_flex_r	wrist_dev_r	arm_flex_l	arm_add_l	arm_rot_l	elbow_flex_l	pro_sup_l	wrist_flex_l	wrist_dev_l
2.32	3.00593	1.32974	-1.42731	0.799499	1.36744	1.02514	0.21818	0.0263578	-0.119862	0.277895	-0.202028	0	0	-0.350041	-0.0386021	-0.409356	0.393841	-0.137173	0	0	-0.549148	0.197191	0.532578	-0.554306	-0.309516	-0.73105	1.98528	0.833271	0	0	0.553882	-0.203151	0.568358	1.08251	0.790732	0	0
2.33	3.01059	1.33312	-1.43125	0.800402	1.37773	1.02347	0.217728	0.0256813	-0.128775	0.245456	-0.20819	0	0	-0.358035	-0.0384923	-0.409805	0.394526	-0.131457	0	0	-0.542145	0.196958	0.530383	-0.55226	-0.309301	-0.729147	1.98058	0.846865	0	0	0.551972	-0.203412	0.567502	1.08126	0.790559	0	0
2.34	3.01475	1.33523	-1.434	0.801326	1.3881	1.02176	0.219421	0.0248278	-0.135902	0.231523	-0.205367	0	0	-0.366345	-0.0393347	-0.41107	0.39713	-0.128991	0	0	-0.538296	0.197065	0.53205	-0.556153	-0.308584	-0.731782	1.98042	0.841581	0	0	0.551865	-0.201676	0.56885	1.08079	0.790101	0	0
2.35	3.01549	1.33497	-1.43219	0.80226	1.3986	1.02023	0.217593	0.0254265	-0.136263	0.224428	-0.205726	0	0	-0.376277	-0.0422289	-0.413142	0.401181	-0.125545	0	0	-0.535605	0.198901	0.531335	-0.557081	-0.307915	-0.732457	1.97866	0.842883	0	0	0.551066	-0.200995	0.569684	1.07985	0.790691	0	0
2.36	3.01394	1.33261	-1.42695	0.803155	1.40919	1.01886	0.212191	0.0270081	-0.130657	0.223295	-0.204613	0	0	-0.387434	-0.0474118	-0.415995	0.40793	-0.119801	0	0	-0.533778	0.202321	0.526943	-0.554933	-0.309423	-0.728895	1.97484	0.847996	0	0	0.548481	-0.201638	0.567389	1.07922	0.794512	0	0
2.37	3.014	1.32882	-1.42264	0.804049	1.41983	1.01753	0.20512	0.0282658	-0.121989	0.230873	-0.203611	0	0	-0.399299	-0.0527546	-0.41786	0.415926	-0.117075	0	0	-0.536587	0.205516	0.528609	-0.559906	-0.307298	-0.733821	1.97704	0.848975	0	0	0.54973	-0.199607	0.570748	1.07953	0.793504	0	0
2.38	3.01591	1.32432	-1.41974	0.805018	1.43052	1.01622	0.196815	0.0293585	-0.111572	0.245267	-0.202065	0	0	-0.410426	-0.0584748	-0.419743	0.427552	-0.113693	0	0	-0.538847	0.208636	0.526855	-0.56113	-0.306322	-0.735533	1.97712	0.849242	0	0	0.550016	-0.199696	0.573082	1.08006	0.793265	0	0
2.39	3.09359	1.33629	-1.49285	0.805435	1.44278	1.01162	0.32108	-0.0384911	-0.27054	0.566697	-0.138515	0	0	-0.405301	-0.0422812	-0.420278	0.445491	-0.103632	0	0	-0.517837	0.191831	0.514707	-0.564268	-0.300575	-0.732657	1.97561	0.850045	0	0	0.547818	-0.20769	0.581601	1.08413	0.788157	0	0
2.4	3.10002	1.33299	-1.49422	0.806561	1.45384	1.00987	0.312316	-0.0370992	-0.256911	0.589096	-0.14415	0	0	-0.41306	-0.0474067	-0.419175	0.463264	-0.0991089	0	0	-0.520325	0.193244	0.516274	-0.570953	-0.296403	-0.738666	1.98002	0.850658	0	0	0.549961	-0.206695	0.586884	1.08531	0.787364	0	0
2.41	3.10639	1.32974	-1.49473	0.807733	1.46507	1.00805	0.301549	-0.0351334	-0.24554	0.612114	-0.152236	0	0	-0.419221	-0.0530263	-0.415981	0.484062	-0.0947769	0	0	-0.520888	0.195258	0.51317	-0.573582	-0.294472	-0.739718	1.98176	0.850834	0	0	0.549877	-0.208178	0.589269	1.08705	0.786658	0	0
2.42	3.10875	1.3262	-1.49062	0.808961	1.47629	1.0063	0.290212	-0.0326063	-0.238643	0.631213	-0.157995	0	0	-0.42361	-0.0596965	-0.409104	0.50825	-0.0922049	0	0	-0.521351	0.198642	0.5084	-0.574161	-0.293672	-0.739038	1.98236	0.851594	0	0	0.548755	-0.209961	0.589428	1.08858	0.787819	0	0
2.43	3.10218	1.32218	-1.47808	0.810182	1.48713	1.00484	0.282428	-0.0308076	-0.23774	0.64233	-0.166273	0	0	-0.425835	-0.0681285	-0.398974	0.536596	-0.0887506	0	0	-0.525562	0.204468	0.508915	-0.578518	-0.292354	-0.74335	1.98642	0.851631	0	0	0.549399	-0.208422	0.590625	1.08953	0.788511	0	0
2.44	3.08412	1.31777	-1.45483	0.811351	1.49752	1.00386	0.277333	-0.0279421	-0.242283	0.644705	-0.18288	0	0	-0.42484	-0.0794171	-0.386586	0.5718	-0.0839605	0	0	-0.529346	0.213961	0.506137	-0.57682	-0.295909	-0.741937	1.98661	0.851875	0	0	0.547346	-0.208306	0.58811	1.08965	0.789219	0	0
2.45	3.06126	1.31319	-1.42898	0.812763	1.50762	1.00332	0.272312	-0.0216466	-0.248074	0.645325	-0.208549	0	0	-0.421652	-0.0910026	-0.372995	0.610272	-0.0818267	0	0	-0.536769	0.224243	0.509394	-0.577933	-0.298132	-0.745301	1.99023	0.851425	0	0	0.546518	-0.205494	0.585871	1.08974	0.789384	0	0
2.46	3.03877	1.31041	-1.40609	0.814587	1.51774	1.00296	0.268002	-0.0128307	-0.250246	0.649356	-0.248508	0	0	-0.414616	-0.101938	-0.360858	0.652354	-0.0826003	0	0	-0.541559	0.232943	0.511573	-0.574944	-0.301731	-0.744614	1.99055	0.847355	0	0	0.543534	-0.203807	0.579855	1.08932	0.794162	0	0
2.47	3.02262	1.31029	-1.39182	0.816846	1.52797	1.00258	0.267645	-0.00489739	-0.244261	0.660991	-0.265049	0	0	-0.403313	-0.109942	-0.348252	0.697416	-0.0864187	0	0	-0.542394	0.237827	0.512042	-0.568404	-0.305373	-0.739554	1.98717	0.849732	0	0	0.540823	-0.205622	0.576737	1.0888	0.793691	0	0
2.48	3.01168	1.31051	-1.38375	0.819348	1.53808	1.00228	0.270139	0.00203538	-0.230019	0.679498	-0.271423	0	0	-0.3893	-0.116115	-0.334305	0.746548	-0.0923337	0	0	-0.546247	0.239708	0.518691	-0.567824	-0.305573	-0.741126	1.9882	0.852113	0	0	0.541231	-0.204682	0.576518	1.08859	0.795612	0	0
2.49	3.00218	1.31151	-1.37863	0.822205	1.54796	1.00211	0.275109	0.0103355	-0.207988	0.704138	-0.264913	0	0	-0.370998	-0.121823	-0.321687	0.800467	-0.105078	0	0	-0.547411	0.239626	0.520876	-0.560353	-0.308097	-0.735867	1.98415	0.860917	0	0	0.53982	-0.207365	0.574385	1.08862	0.796842	0	0
2.5	2.99379	1.30621	-1.37148	0.824805	1.55754	1.00278	0.26947	0.0186285	-0.194796	0.723047	-0.260589	0	0	-0.356816	-0.128807	-0.305516	0.853586	-0.118944	0	0	-0.555753	0.241326	0.522527	-0.55427	-0.310889	-0.732523	1.9821	0.860754	0	0	0.541424	-0.209785	0.57548	1.08854	0.794503	0	0
2.51	2.98318	1.29941	-1.35947	0.827134	1.56699	1.00379	0.258737	0.0258677	-0.191413	0.733595	-0.258164	0	0	-0.341204	-0.137302	-0.28746	0.907949	-0.135843	0	0	-0.567132	0.244816	0.527533	-0.553829	-0.310581	-0.735596	1.9842	0.860022	0	0	0.54636	-0.209295	0.580461	1.08746	0.790794	0	0
2.52	2.97162	1.29458	-1.34559	0.829312	1.5764	1.00477	0.247548	0.0317499	-0.195716	0.736892	-0.256684	0	0	-0.321782	-0.145295	-0.268513	0.962027	-0.150045	0	0	-0.573893	0.248917	0.528159	-0.550532	-0.311858	-0.734033	1.98335	0.860083	0	0	0.549534	-0.210333	0.583497	1.08549	0.787752	0	0
2.53	2.95977	1.29217	-1.33129	0.831453	1.58578	1.00552	0.237803	0.0368719	-0.205319	0.737176	-0.25359	0	0	-0.299364	-0.15206	-0.249576	1.01434	-0.160588	0	0	-0.577367	0.252508	0.528458	-0.548158	-0.312682	-0.732393	1.98244	0.859525	0	0	0.552573	-0.211395	0.586544	1.08349	0.784123	0	0
2.54	2.94928	1.29184	-1.31847	0.833632	1.59517	1.00602	0.230031	0.0415828	-0.215211	0.738583	-0.247838	0	0	-0.275682	-0.15718	-0.231498	1.06313	-0.165105	0	0	-0.578543	0.255267	0.528569	-0.546739	-0.312688	-0.73091	1.9826	0.857825	0	0	0.554977	-0.212647	0.588508	1.08191	0.781412	0	0
2.55	2.94241	1.2928	-1.30994	0.83584	1.60457	1.00637	0.223528	0.0457192	-0.22087	0.742384	-0.241655	0	0	-0.252674	-0.160325	-0.216038	1.10641	-0.161706	0	0	-0.576926	0.256239	0.526057	-0.543203	-0.313466	-0.726264	1.9807	0.855982	0	0	0.555337	-0.215428	0.588403	1.08099	0.782154	0	0
2.56	2.9377	1.2957	-1.30445	0.83804	1.61396	1.00656	0.219394	0.0496152	-0.220649	0.748437	-0.227236	0	0	-0.229369	-0.161416	-0.203249	1.14447	-0.138868	0	0	-0.57411	0.255417	0.526618	-0.542958	-0.31156	-0.725169	1.98055	0.855154	0	0	0.557434	-0.217918	0.593309	1.08071	0.775323	0	0
2.57	2.93691	1.29657	-1.3037	0.840188	1.62321	1.00714	0.211999	0.0536735	-0.217693	0.752486	-0.21787	0	0	-0.20995	-0.161181	-0.195175	1.17504	-0.116891	0	0	-0.573862	0.253733	0.526621	-0.541644	-0.310663	-0.72287	1.98025	0.854199	0	0	0.557626	-0.220053	0.593333	1.0816	0.774458	0	0
2.58	2.93917	1.29574	-1.30643	0.842247	1.6324	1.0082	0.201724	0.0576474	-0.213755	0.754047	-0.210099	0	0	-0.19313	-0.159687	-0.19083	1.19899	-0.0991328	0	0	-0.575118	0.251585	0.525324	-0.538755	-0.311039	-0.71885	1.97889	0.852519	0	0	0.556681	-0.222831	0.591703	1.08284	0.774214	0	0
2.59	2.94305	1.29349	-1.31119	0.844148	1.64156	1.00965	0.18906	0.061699	-0.209499	0.753244	-0.20376	0	0	-0.178033	-0.157067	-0.188167	1.21796	-0.0870771	0	0	-0.578773	0.249305	0.526318	-0.538102	-0.31063	-0.717508	1.97891	0.851497	0	0	0.556087	-0.22404	0.590408	1.08417	0.773592	0	0
2.6	2.94792	1.2918	-1.31764	0.846012	1.65075	1.01122	0.176574	0.065211	-0.205177	0.751392	-0.197753	0	0	-0.162262	-0.153555	-0.186923	1.2334	-0.0779686	0	0	-0.581662	0.246267	0.527959	-0.537919	-0.309651	-0.716452	1.97837	0.851647	0	0	0.555184	-0.224808	0.58921	1.08508	0.772964	0	0
2.61	2.95201	1.29188	-1.32399	0.847871	1.65998	1.0127	0.165124	0.0686504	-0.200103	0.747972	-0.190789	0	0	-0.144355	-0.149658	-0.187043	1.24547	-0.0680323	0	0	-0.582486	0.242539	0.530734	-0.538992	-0.30804	-0.716087	1.97744	0.852323	0	0	0.554175	-0.224977	0.588732	1.08526	0.772673	0	0
2.62	2.95673	1.29266	-1.33111	0.849616	1.66923	1.01416	0.153749	0.0708845	-0.196795	0.744442	-0.18564	0	0	-0.126315	-0.145365	-0.187315	1.25357	-0.0604479	0	0	-0.582043	0.238588	0.533092	-0.540114	-0.306384	-0.715413	1.97619	0.852785	0	0	0.55267	-0.225235	0.588258	1.08511	0.772755	0	0
2.63	2.963	1.29312	-1.33924	0.851214	1.67847	1.01565	0.141218	0.0719248	-0.195342	0.740609	-0.186272	0	0	-0.109082	-0.140888	-0.187125	1.25777	-0.0562706	0	0	-0.581517	0.234729	0.534429	-0.541234	-0.305288	-0.714209	1.97506	0.85099	0	0	0.551123	-0.226167	0.58862	1.08527	0.771501	0	0
2.64	2.97085	1.29489	-1.34752	0.852691	1.68776	1.01703	0.129024	0.0719564	-0.195695	0.735687	-0.177478	0	0	-0.0900739	-0.135628	-0.18485	1.25877	-0.0509851	0	0	-0.579235	0.230541	0.534571	-0.542631	-0.303149	-0.713312	1.97365	0.85334	0	0	0.549385	-0.226866	0.588149	1.08497	0.776285	0	0
2.65	2.97562	1.29526	-1.35289	0.854071	1.6969	1.01852	0.114897	0.073165	-0.196685	0.728818	-0.173215	0	0	-0.0723981	-0.132165	-0.183619	1.25593	-0.0488075	0	0	-0.578849	0.227476	0.53605	-0.544448	-0.300976	-0.714006	1.97325	0.854285	0	0	0.548388	-0.227504	0.589488	1.0854	0.776227	0	0
